<!-- Generator: Adobe Illustrator 19.2.1, SVG Export Plug-In  -->
<svg version="1.1"
	 xmlns="http://www.w3.org/2000/svg" xmlns:xlink="http://www.w3.org/1999/xlink" xmlns:a="http://ns.adobe.com/AdobeSVGViewerExtensions/3.0/"
	 x="0px" y="0px" width="77.9px" height="78.4px" viewBox="0 0 77.9 78.4" enable-background="new 0 0 77.9 78.4"
	 xml:space="preserve">
<defs>
</defs>
<path fill="#FFFFFF" d="M77.5,32.5c-2.3,5.2-6.5,8.1-11.9,9.1c-2.5,0.5-5,0.1-7.4-0.8c-4.8-1.7-9.7-3-14.9-2.6
	c-4.9,0.3-9.1,2-12.2,6C30.5,45,29.9,46,29.7,47c-0.5,2,0.3,3.2,2.2,3.9c3.1,1.1,6.2,0.6,9.3-0.3c1.9-0.6,3.9-1,5.9-1.2
	c5.6-0.5,8.9,3.6,9.7,7.5c0.5,2.6,0.5,5.4-0.1,7.9c-1.5,6.5-9.6,10.3-16.6,8.1c-2.9-0.9-5.3-2.7-7.5-4.7c-1.6-1.4-3.3-2.9-5.2-3.8
	c-5-2.4-10.2,1.3-9.5,6.7c0.2,1.2,1.1,2.5,2.1,3.4c0.7,0.7,1.8,0.7,2.6-0.5c0.4-0.6,1.3-1.1,2-1.3c1.6-0.3,3.3-0.4,5-0.6
	c-0.3,1.9-0.6,3.9-0.9,5.8c-0.3,0-0.6,0-0.7-0.1c-1.9-1.8-3.6-2-5.9-0.3c-2.9,2-7.4-0.2-8.9-3.9c-2.6-6.7,1.7-14.3,8.9-15.8
	c3.4-0.7,6.6,0.1,9.4,1.8c2.5,1.6,4.9,3.4,7.3,5.2c2.7,2,5.5,2.8,8.7,1.6c3.2-1.3,4.8-5.6,3.2-8.7c-1.4-2.5-3.3-3.4-6-2.5
	c-3.2,1.1-6.3,2.2-9.7,1.9c-3.9-0.4-7.5-1.4-9.7-5.1c-1.6-2.6-1.7-5.3-0.3-8c3.1-5.7,8.1-8.6,14.4-9.5c5.9-0.9,11.5,0.5,16.9,2.7
	c1.2,0.5,2.4,1,3.7,1.5c5.3,1.8,11.2,0.2,14.9-4.1c1.6-1.9,2.2-4,1.2-6.5c0.2,0,0.4-0.1,0.6-0.1c0.3,0.5,0.7,1,1,1.6
	C77.5,30.6,77.5,31.5,77.5,32.5z"/>
<path fill="#FFFFFF" d="M32.9,3.8c1,0,2.1-2,2.5,0.6c1.7-1.1,3.3-1.9,4.7-3c3.7-2.8,10.8-1.4,13.1,2.7c1.3,2.2,1,3.1-1.8,4.3
	c5.4,0.8,10.3,1.9,14.6-2c0.9-0.8,1.8-1.6,2.8-2.2c3-1.7,4.9-0.7,5.4,2.6c0.2,1.3,0.3,2.7,0.1,4c-0.2,1.3,0.1,2.2,1,3.2
	c0.9,1.1,1.7,2.4,2.2,3.8c0.9,2.6,0.4,3.2-2.4,2.6c-2.2-0.5-4.5-1.2-6.5-2.2c-3.9-2-7.9-2.1-12-0.9c-0.5,0.1-0.9,0.4-1.5,0.6
	c0.8,0.2,1.7,0.1,2.1,0.4c0.9,1.1,2,2.3,2.1,3.6c0.1,0.7-1.4,2.3-2.3,2.4c-2.3,0.2-4.8,0.3-7-0.4c-3-1-5.8-1.9-9-0.8
	c-2.2,0.7-4.6,0.7-6.7,0.9c0,1.7,0.1,3.4-0.1,5c0,0.3-1.6,0.9-2,0.6c-2.3-1.2-4.4-2.8-6.7-4.1c-1.1-0.6-2.5-1.1-3.7-1.1
	C14.5,24.9,8,22.1,1.2,20.3c-0.5-0.1-0.8-0.6-1.2-0.9c0-0.2,0.1-0.4,0.1-0.6C1.7,18.9,3.4,19,5,19.1c0-0.1,0-0.2,0-0.2
	c-1.3-0.6-2.6-1.1-4.4-1.9c1.9-1.3,3.4-2.4,5-3.4C10.2,10.6,14.3,7,20,6c1.2-0.2,2.4-1.8,3.1-3c0.7-1.2,2.8-2.4,4-1.9
	c1.6,0.6,3.2,0.9,4.8,1.5C32.3,2.8,32.6,3.4,32.9,3.8z"/>
</svg>
