<!-- Generator: Adobe Illustrator 19.2.1, SVG Export Plug-In  -->
<svg version="1.1"
	 xmlns="http://www.w3.org/2000/svg" xmlns:xlink="http://www.w3.org/1999/xlink" xmlns:a="http://ns.adobe.com/AdobeSVGViewerExtensions/3.0/"
	 x="0px" y="0px" width="75.7px" height="54.9px" viewBox="0 0 75.7 54.9" enable-background="new 0 0 75.7 54.9"
	 xml:space="preserve">
<defs>
</defs>
<path fill="#FFFFFF" d="M46.1,39.7c0,0-11.9,1.7-11.9-2.5s9.7-10.4,19.5-10.4s13,4.4,10.8,6.6c0,0,1.8,0,1.8,2.9
	c0,2.9-11,17.6-22.7,17.6C43.6,54,33.2,54.9,46.1,39.7z"/>
<path fill="#FFFFFF" d="M25.8,43.9c0,0.3,0,0.6,0,0.9c0,0.2-0.1,0.4-0.1,0.6c-0.1,0.3-0.2,0.7-0.4,0.9c-0.5,0.3-0.6,0.8-0.7,1.3
	c-0.1,0.6,0,1.3-0.6,1.8c0.3,0.1,0.5,0.1,0.7,0.2c0.1,0.1,0.3,0.3,0.3,0.5c0,0.3-0.2,0.6-0.3,0.9c-0.3-0.3-0.3,0.3-0.4,0.2
	c-0.3-0.2-0.3,0.1-0.4,0.2c-0.2,0.1-0.7,0.4-0.7,0.4c-0.3-0.3-0.4,0-0.5,0.1c-0.3,0.6-0.8,1.2-0.8,2c0,0.5-0.4,0.7-0.9,0.6
	c0.1-0.1,0.3-0.2,0.4-0.3c-0.3,0-0.6-0.1-0.9-0.1c0,0,0-0.1,0-0.1c0.3-0.1,0.6-0.1,1-0.2c0,0,0-0.1,0-0.1c-0.1-0.1-0.2-0.1-0.4-0.2
	c0.6-0.3,0.4-1,0.9-1.3c0.1-0.1,0.1-0.3,0.1-0.5c0.5-0.3,1.1-0.6,1.7-0.9c0.1-0.1,0.2-0.1,0.3-0.1c0.1,0,0.2-0.1,0.4-0.1
	c-0.1-0.1-0.1-0.1-0.2-0.2c-0.2,0-0.3,0-0.5,0c-0.4,0-0.8,0-1.2-0.1c-0.3,0-0.5-0.4-0.2-0.5c0.5-0.4,0.2-1,0.5-1.4
	c-0.4,0.2-0.8,0.6-1.2,0.7c-0.4,0.1-0.6,0.1-0.6,0.6c0,0.1-0.2,0.4-0.3,0.4c-0.1,0-0.3-0.1-0.4-0.3c-0.1-0.2-0.2-0.5-0.3-0.8
	c-0.1-0.2-0.2-0.5-0.3-0.7c0,0-0.1,0-0.1,0c-0.1,0.9-0.2,1.8-0.4,2.7c-0.4,0-0.5,0.1-0.6,0.6c-0.5,0-0.5,0.5-0.8,0.7
	c-0.1,0-0.2-0.1-0.5-0.2c0.1,0.5,0.2,0.8,0.3,1.1c-0.2-0.1-0.3-0.2-0.4-0.4c-0.1-0.1-0.1-0.3-0.2-0.5c0,0-0.1,0-0.1,0
	c0,0.2,0,0.4,0,0.6c-0.1-0.1-0.1-0.1-0.2-0.2c-0.1-0.3,0.1-0.8,0.5-0.9c0.7-0.3,1.1-0.9,1.5-1.4c0.1-0.1,0.1-0.4,0.1-0.4
	c-0.3-0.1-0.1-0.3-0.1-0.4c0.1-0.4,0.2-0.8,0.2-1.3c0-0.3,0.2-0.6,0.6-0.7c0.2,0,0.5,0,0.6,0.2c0.3,0.3,0.5,0.7,0.8,1.2
	c-0.1-1.9,0-3.6,2.5-3.5c-0.4-0.3-0.8-0.5-1.1-0.7c-0.1-0.1-0.2-0.1-0.3-0.2c-0.1-0.1-0.2-0.3-0.3-0.4c-0.4,0.4-0.7,0.7-1,1.1
	c-0.3,0.3-0.1,0.8-0.7,1.1c-0.3,0.2-0.5,0.7-0.7,1c-0.2,0.2-0.5,0.4-0.8,0.5c-0.2,0.1-0.5,0.1-0.7,0.3c-0.7,0.4-1.1,1.1-2,1.2
	c-0.2,0.6-1.2,0.3-1.1,1.1c0,0-0.1,0-0.1,0c-0.2,0.2-0.5,0.5-0.7,0.7c-0.2,0.2-0.4,0.4-0.6,0.6c-0.2,0.2-0.5,0.4-0.7,0.6
	c-0.1,0.2-0.2,0.4-0.3,0.6c-0.1-0.1-0.2-0.1-0.3-0.2c0.1,0.2,0.3,0.4,0.4,0.6c-0.5-0.1-0.7-0.4-0.6-0.7c0.2-0.5,0.4-1,1-1
	c0.1,0,0.1-0.1,0.2-0.2c0,0,0-0.1-0.1-0.1c-0.7,0.2-1.5,0.4-2.2,0.6c0,0.2,0,0.4,0,0.7c0,0-0.1,0-0.1,0c0-0.2-0.2-0.5-0.1-0.7
	c0.2-0.5,0.8-0.8,1.5-0.6c0.7-0.4,1.3-0.8,1.7-1.5c-0.9-0.1-1.7-0.3-2.5-0.4c-0.4,0.8-0.8,1.6-1.1,2.4c-0.3,0.8-0.9,1.3-1.6,1.5
	c-0.2,0.1-0.5,0.2-0.7,0.3c-0.6,0.1-1.1,0.1-1.7,0.2C5.9,53.9,5.5,54,5,54.1c0,0-0.1,0-0.1,0C4.8,53.7,4.5,54,4.3,54
	c-0.3,0-0.6,0-0.9,0c0-0.1-0.1-0.1-0.1-0.2c-0.1,0.4-0.2,0.7-0.4,1.1c-0.2-0.4-0.2-0.8,0.1-1.1c0.3-0.3,0.6-0.8,1.2-0.5
	c0.2,0.1,0.4,0.2,0.6,0.2c0.3-0.1,0.7-0.4,1-0.3c0.5,0.1,0.9-0.1,1.3-0.2c0.6-0.1,1.1-0.4,1.7-0.5c0.1,0,0.2-0.1,0.3-0.1
	C9.1,52.3,9,52.2,9,52.2c-0.3,0.1-0.5,0.2-0.8,0.4c-0.2,0.1-0.4,0.3-0.6,0.2C6.9,52.7,6.4,53,5.8,53c-0.4,0-0.8,0.2-1.3,0.3
	c0,0-0.1,0-0.1,0c-0.2-0.4-0.5-0.1-0.7-0.1c-0.2,0-0.5,0-0.7-0.1c0,0-0.1-0.1-0.1-0.1c-0.1,0.4-0.2,0.7-0.4,1.1
	c-0.5-1,0.4-1.2,0.9-1.7c0.5,0.5,1.2,0.4,1.7,0.2c0.5-0.2,1-0.1,1.5-0.3c0.6-0.2,1.2-0.4,1.7-0.6c0.1-0.1,0.2-0.2,0.3-0.3
	c0.6-1.4,1.2-2.7,2.4-3.6c0.1,0,0.3,0.1,0.5,0c0.7-0.4,1.5-0.6,2.3-0.6c0,0,0.1-0.2,0.1-0.2c-0.2-0.3-0.4-0.5-0.5-0.8
	c-0.4,0.1-0.8,0.3-1.3,0.5c-0.9,0.3-1.8,0.6-2.8,0.7c-1,0.1-2,0-3.1-0.1c-0.3,0-0.5-0.2-0.7-0.2c-0.6,0-0.9-0.3-1.3-0.6
	c-0.5-0.4-1.1-0.8-1.3-1.6c0,0-0.1-0.1-0.1-0.1c-0.5-0.3-0.6-0.8-0.5-1.3c0-0.2,0.2-0.5,0.1-0.7c-0.2-1.4,0.8-2.3,1.4-3.3
	C3.8,39.1,3.9,39,4,39c0.6-0.3,1-1,1.8-1c0.1,0,0.1,0,0.1-0.1c0.2-0.7,0.7-0.6,1.2-0.6c1.1-0.2,2.1-0.4,3.2-0.6c0,0,0.1,0,0.1-0.1
	c0.3,0,0.6,0,0.9,0c0.1,0,0.1,0.1,0.2,0.1c0.6,0.1,1.3,0,1.8,0.3c0.1,0.1,0.4-0.1,0.6-0.1c0.6,0.1,1.1,0.5,1.8,0.6
	c1,0.1,1.9,0.5,2.8,0.8c0.5,0.2,1.1,0.4,1.6,0.6c0.1,0,0.1,0,0.2,0c0.4,0.2,0.9,0.4,1.3,0.7c0.2,0.1,0.3,0.3,0.5,0.4
	c0.4,0.2,0.7,0.4,1.1,0.6C24.5,41.4,25.6,42.3,25.8,43.9z M14.9,46.2c0,0,0.1-0.1,0.1-0.1c-0.3-0.2-0.6-0.4-1-0.6
	c0,0-0.1,0.1-0.1,0.1c0.2,0.5,0.4,1,0.6,1.5c0,0.1,0.2,0.1,0.2,0.1c0.1-0.1,0.2-0.2,0.2-0.3C15,46.7,14.9,46.5,14.9,46.2z
	 M19.4,44.6c-0.4,0-0.7,0.1-1.1,0.1c0.1,0.3,0.1,0.5,0.2,0.8C18.8,45.2,19.1,44.9,19.4,44.6z"/>
<path fill="#FFFFFF" d="M7,23.1c0,0-7-1.1-7-3.6S4.9,16,11.9,12s8.9-6,13.4-6s6.5,3,6.5,5.7s-4.6,7.8-12.4,10c0,0,4.4,0.7,7.8,0.7
	s7.6-0.4,7.6,1.1c0,1.6-8.1,8-18.9,8s-15-5.4-15-6.1C0.9,25.4,0.6,23.1,7,23.1z"/>
<path fill="#FFFFFF" d="M67.7,8.8c-1-0.1-1.9-0.1-2.6-0.2c1,1,2.3,2.2,3.4,3.2c0.7-0.1,1.4-0.2,2-0.3c0,0.1,0,0.2,0.1,0.3
	c-0.4,0.2-0.7,0.4-1.1,0.6c1.4,0.1,2.7,0.4,4-0.4c0.6-0.4,1.4-0.3,2.2-0.4c0,0.1,0.1,0.3,0.1,0.4c-0.2,0.1-0.4,0.1-0.6,0.2
	c-0.3,0-0.6-0.1-0.9,0c-1.9,1.1-3.9,0.8-5.9,1c-0.3,0-0.5,0.4-0.8,0.6c-0.7,0.4-1.5,0.7-2.5,1.2c-0.2,1.5-1.2,3-2.3,4.5
	c-0.3,0.4-0.2,1.2-0.4,1.8c-0.3-0.8-0.3-1.6,0.2-2.4c0.7-1.2,1.3-2.5,1.8-3.8c0.3-0.8,0-1.2-0.9-1.2c-0.9,0-1.8,0.1-2.7-0.1
	c-0.9-0.2-1.6-0.8-2.6-1.3c-0.1,0.1-0.5,0.4-1,0.7c1.2,2,1.2,4,0.5,6.1c-0.1,0-0.2,0-0.3,0c0-0.4-0.1-0.8,0-1.1
	c0.4-1.3,0.1-2.5-0.4-3.7c-0.2-0.5-0.3-1-0.3-1.5c-0.1-1.1-0.6-1.4-1.5-0.8c-1.8,1.2-3.9,1.7-6,1.8c-1.8,0.1-2.8,0.9-3.1,2.7
	c-0.1,0.6-0.3,1.1-0.4,1.6c-0.1,0-0.3,0-0.4-0.1c0.1-0.6,0.2-1.3,0.3-1.9c0.5-1.8,1.5-3.1,3.6-3.2c0.9,0,1.8-0.3,2.7-0.5
	c0.3-0.1,0.6-0.5,0.9-0.8c-0.2-0.2-0.5-0.5-0.7-0.6c-0.8-0.4-1.5-0.4-2.4,0c-0.8,0.3-1.9,0.1-2.8,0c-0.3,0-0.5-0.2-0.8-0.4
	c-1.6-1.3-3.4-1.9-5.5-2c-0.8,0-1.7-0.1-2.1-0.9c1.7,0.2,3.5,0.1,5.1,0.6c1.6,0.5,2.9,1.6,4.5,2.5c0.2-0.4,0.4-0.7,0.5-1
	c-1.3-0.9-2.6-1.7-3.9-2.7c-1.6-1.2-2-2.8-1.8-4.7c0.2-1.5,1-2.4,2.4-2.5c2.1-0.1,4.3-0.2,6.4,0c2.8,0.3,5.5,0.9,8,2.3
	c1.7,1,3.2,2.3,4.7,3.6c0.2,0.2,0.4,0.5,0.5,0.8c0.4,1.4,0.7,1.6,2.1,1.5c0.3,0,0.6,0,0.9,0C67.8,8.5,67.7,8.7,67.7,8.8z"/>
</svg>
