<!-- Generator: Adobe Illustrator 19.2.1, SVG Export Plug-In  -->
<svg version="1.1"
	 xmlns="http://www.w3.org/2000/svg" xmlns:xlink="http://www.w3.org/1999/xlink" xmlns:a="http://ns.adobe.com/AdobeSVGViewerExtensions/3.0/"
	 x="0px" y="0px" width="83.9px" height="37.2px" viewBox="0 0 83.9 37.2" enable-background="new 0 0 83.9 37.2"
	 xml:space="preserve">
<defs>
</defs>
<path fill="#FFFFFF" d="M28.7,15.4c-0.2-0.5-0.5-0.8-1.1-1.1c-0.2-0.1-0.5-0.1-0.7,0c-0.7,0.3-1.1,1.5-1.6,2.9
	c-0.5,1.4-1.1,2.9-1.9,3.1c-0.2,0-0.4,0-0.6-0.1c-0.5-0.4-0.6-1.7-0.6-3c0-0.8-0.1-1.6-0.2-2.4c-0.4-2.1-4.3-3-5.7-3.2
	c0.1-0.4,0.1-0.9-0.1-1.6c-1.1-3.3-3.3-6-8.9-7.3S1.2,0.4,0,0c0,0,1.3,8.4,9,9c0,0,3.4,0.7,3.9,2.2c0.4,1.1,2.4,1.6,3.2,0.7
	c0.5,0.1,1.5,0.3,2.4,0.6c1.3,0.4,2.8,1.2,3,2.3c0.1,0.7,0.2,1.5,0.2,2.3c0.1,1.5,0.1,2.9,0.8,3.4c0.3,0.2,0.6,0.3,0.9,0.2
	c1-0.2,1.6-1.8,2.2-3.4c0.4-1.2,0.9-2.4,1.4-2.6c0.1,0,0.2,0,0.3,0c0.4,0.2,0.7,0.5,0.8,0.8c0.2,0.6-0.2,1.3-0.2,1.3l0.4,0.2
	C28.5,17,29,16.2,28.7,15.4z"/>
<path fill="#FFFFFF" d="M47.2,5.9C46,7.7,45,8.5,44.3,8.2c-0.4-0.2-0.7-0.8-0.8-1.5c0.2,0.1,0.5,0.1,0.7,0C44.8,6.6,45.4,6,45.9,5
	c0.6-1.4,0.8-2.4,0.4-2.9c-0.2-0.2-0.5-0.3-0.9-0.2C44.6,2,43.7,3,43.3,4.6c-0.1,0.6-0.2,1.2-0.2,1.7c-0.7-0.3-1.4-1-2.1-1.6
	c-0.7-0.6-1.3-1.2-1.9-1.5c-0.6-0.3-1.2-0.3-1.6-0.1c-0.5,0.3-0.7,0.8-0.9,1.3c-2.4-0.3-7.6,8.6-2.8,10c4.8,1.4,5.6-8.8,3.1-9.9
	c0.1-0.4,0.3-0.9,0.7-1.1c0.3-0.2,0.8-0.2,1.3,0.1c0.6,0.3,1.2,0.8,1.9,1.5c0.8,0.7,1.6,1.4,2.3,1.7c0.1,1,0.4,1.7,1,1.9
	c0,0,0.1,0,0.1,0c0.6,0.2,1.7-0.2,3.2-2.5c2.9-4.6,4.7-3.6,4.7-3.6l0.2-0.3C52.2,2.1,50.2,1,47.2,5.9z M43.6,4.6
	c0.3-1.4,1.2-2.3,1.9-2.5c0.1,0,0.2,0,0.3,0c0.1,0,0.2,0.1,0.2,0.1c0.1,0.1,0.4,0.7-0.4,2.6c-0.5,1-1,1.5-1.5,1.6
	c-0.2,0-0.4,0-0.7,0C43.4,5.9,43.5,5.3,43.6,4.6z"/>
<path fill="#FFFFFF" d="M61.1,34.3c0.1-0.4,0.2-0.7,0.2-1.1c0.1-0.5,0.2-0.9,0.2-1.4c0-0.1,0-0.2,0-0.4c0.1-1,0.2-2,0.4-3
	c0.1-0.7,0.4-1.4,0.6-2.1c0.1-0.3,0.2-0.5,0.3-0.8c0-0.1,0.1-0.2,0.1-0.3c-0.1-0.1-0.2-0.1-0.3-0.2c0,0-0.1,0-0.1,0
	c-0.2,0.2-0.3,0-0.5,0c-0.5-0.1-1-0.3-1.5-0.4c-0.3-0.1-0.5-0.4-0.8-0.5c-0.1-0.1-0.3-0.2-0.4-0.3c-0.4-0.2-0.7-0.4-1-0.7
	c-0.4-0.4-0.8-0.8-1.3-1.2c-0.6-0.5-1.2-1.1-1.8-1.7c-0.5-0.5-1-1-1.6-1.5c-0.4-0.3-0.7-0.6-1.2-0.7c-0.1,0-0.3-0.1-0.4-0.2
	c0,0,0-0.1,0-0.1c0.2,0,0.5,0.1,0.7,0.1c1.1-0.1,2.2-0.1,3.3-0.2c0.3,0,0.5-0.2,0.7-0.4c0.2-0.1,0.3-0.4,0.5-0.6
	c0.1-0.1,0.1-0.2,0-0.3c-0.2-0.3-0.4-0.6-0.6-0.9c-0.4-0.7-0.8-1.5-1-2.3c-0.2-0.7-0.5-1.4-0.8-2.1c-0.2-0.4-0.4-0.8-0.6-1.1
	c-0.1-0.2-0.3-0.3-0.3-0.5c0-0.2-0.1-0.4-0.1-0.7c0,0,0.1,0,0.1,0c0.1,0.1,0.3,0.1,0.4,0.2c0.7,0.4,1.4,0.4,2.2,0.6
	c0.1,0,0.2,0,0.3,0c0.3-0.1,0.4-0.2,0.5-0.5c0.1,0,0.2-0.1,0.2-0.1c0-0.1-0.1-0.1-0.1-0.2c0-0.1-0.1-0.1-0.1-0.2
	c0-0.2,0-0.4,0.1-0.6c0-0.1,0-0.3,0.2-0.3c0.1,0,0.1-0.2,0.2-0.3c-0.1,0-0.2,0-0.3,0c0.1-0.1,0.2-0.2,0.2-0.2
	c0.1-0.2,0.2-0.4,0.3-0.5c0,0,0.1-0.1,0.1-0.1c0,0,0.1,0,0.1,0c0-0.1,0-0.2,0-0.2c-0.1-0.1-0.1-0.2-0.1-0.3c0-0.1,0.1-0.3,0.1-0.4
	c0-0.1,0.1-0.2,0.1-0.4c0.1-0.7-0.2-1.3-0.3-2c0-0.1-0.1-0.3-0.1-0.4c0,0-0.1-0.1-0.1-0.1c-0.2-0.1-0.4-0.2-0.5-0.2
	c-0.1-0.1-0.1-0.2-0.2-0.3c0.1,0,0.1-0.1,0.2-0.1c0,0-0.1,0.1-0.1,0.1c0.2,0,0.4,0.1,0.6,0.1c0,0,0.1,0,0.1-0.1
	c0,0.3,0.3,0.3,0.5,0.4c-0.1-0.2-0.3-0.3-0.5-0.4c-0.1,0-0.2-0.1-0.2-0.1c-0.1,0-0.3,0-0.4-0.1C58.3,2.3,58.7,2.5,59,3
	c0.5,0.8,1.1,1.4,1.7,2.1c0.1,0.1,0.3,0.2,0.5,0.3c0.3,0.1,0.5,0.3,0.7,0.5c0.2,0.3,0.4,0.6,0.6,0.9c0.2,0.3,0.4,0.4,0.7,0.4
	c0.8,0,0.8,0.1,1.1,0.8c0.3,0.7,0.5,1.5,0.6,2.2c0.1,0.5,0.2,1.1,0.4,1.6c0.1,0.3,0.2,0.5,0.3,0.8c0.1,0.1,0.4,0.1,0.6,0
	c0.1-0.1,0.2-0.2,0.3-0.3c0.3-0.4,0.7-0.8,1-1.2c0,0.1,0,0.1,0.1,0.2c0,0,0,0,0.1,0c0-0.1-0.1-0.2-0.1-0.2c-0.2-0.1-0.2-0.3-0.1-0.5
	c0.2-0.6,0.5-1.1,0.7-1.7c0.2-0.5,0.4-0.9,0.6-1.3c0.2-0.4,0.4-0.8,0.6-1.3c0.1,0.1,0.1,0.1,0.1,0.2C69.9,7,70.5,7.3,71,7.8
	c0.1,0.1,0.5,0.1,0.6,0c0.4-0.2,0.7-0.5,1.1-0.7c0,0,0.1-0.1,0.1-0.1c0.2-0.2,0.5-0.3,0.7-0.3c0.2,0,0.3,0,0.5,0
	c0.5,0.1,0.8-0.2,1.1-0.5c0.5-0.5,1-0.8,1.6-1c0.2,0,0.4-0.1,0.5-0.2c0.2,0.1,0.3,0.2,0.4,0.3c0,0,0-0.1,0.1-0.1
	c-0.1-0.1-0.2-0.2-0.3-0.3c0.4,0.1,0.9,0.4,0.9,0.7c-0.2-0.1-0.4,0-0.6-0.2c-0.1-0.1-0.4,0-0.5,0c-0.1,0-0.2,0-0.3,0
	c-0.1,0.2-0.2,0.3-0.2,0.5c-0.2,0.5-0.3,0.9-0.4,1.4c-0.1,0.6-0.1,1.2,0.2,1.7c0.2,0.3,0.3,0.7,0.2,1.1c0,0.5,0,1,0.2,1.6
	c0,0.2,0.1,0.4,0.1,0.5c0,0.1-0.1,0.2-0.2,0.2c-0.1,0-0.2,0-0.4-0.1c0.3,0.3,0.8,0.4,2,0.4c0,0,0,0.1,0,0.1c0,0.1,0,0.2,0,0.3
	c-0.3,0.2-0.5,0.4-0.7,0.7c-0.2,0.4-0.5,0.8-0.8,1.2c0,0,0,0.1,0,0.1c0.1,0.5-0.4,0.6-0.6,0.8c-0.2,0.2-0.5,0.4-0.7,0.6
	c-0.1,0.1-0.2,0.1-0.3,0.2c-0.1,0-0.2,0.1-0.3,0.2c-0.4,0.4-0.8,0.8-1.1,1.2c-0.2,0.2-0.3,0.5-0.4,0.8c-0.1,0.4,0.1,0.6,0.5,0.6
	c0.5,0.1,0.9,0.1,1.4,0.2c0.4,0,0.8,0.1,1.2,0.1c0.4,0,0.6,0.2,0.8,0.6c0.1,0.2,0.3,0.4,0.5,0.5c0.6,0.4,1.2,0.7,1.8,1
	c0.5,0.2,1,0.4,1.6,0.4c0.3,0,0.6,0.1,0.9,0.2c0.5,0.2,1.1,0.3,1.6,0.5c0,0,0,0,0.1,0.1c-0.4,0-0.8,0-1.1,0l0,0
	c-0.2,0-0.3,0.1-0.5,0.1c-0.1,0-0.2,0.1-0.2,0.1c-0.3,0-0.6,0-0.9,0.1c-0.2,0-0.3,0.2-0.5,0.3c-0.6,0.4-1.2,0.8-1.7,1.4
	c-0.2,0.3-0.5,0.3-0.7,0.4c-0.4,0.2-0.8,0.4-1.3,0.6c-0.4,0.1-0.5,0.4-0.6,0.8c0,0.5,0,1,0.2,1.4c0.1,0.3,0.3,0.5,0.4,0.8
	c0,0,0,0.1,0.1,0.2c-0.1,0-0.2,0-0.3,0c-0.4-0.1-0.8-0.3-1.2-0.4c-0.4-0.1-0.8-0.2-1.2-0.3c-0.3-0.1-0.6-0.1-0.9-0.1
	c-0.5,0-1-0.2-1.5-0.3c-0.1,0-0.3-0.1-0.4-0.2c-0.2-0.1-0.3-0.1-0.5-0.1c-0.1,0.4-0.2,0.8,0,1.1c0.3,0.7,0.5,1.5,0.7,2.2
	c0,0.1,0,0.1,0,0.2c-0.1-0.1-0.3-0.2-0.4-0.3c-0.5-0.4-1.2-0.6-1.8-0.7c-0.7-0.2-1.5-0.3-2.2-0.7c-0.6-0.3-1.3-0.5-1.8-1
	c-0.4-0.3-0.9-0.6-1.2-1.1c-0.1-0.1-0.2-0.3-0.3-0.5c-0.2-0.3-0.4-0.7-0.5-1c0,0,0-0.1,0-0.2c0,0,0-0.1,0-0.1c-0.1,0-0.3-0.2-0.4,0
	c-0.1,0.2-0.3,0.4-0.4,0.6c-0.6,1.2-0.8,2.6-1,3.9c-0.2,1.4-0.4,2.7-0.6,4.1C61.2,34.4,61.2,34.4,61.1,34.3z M69.3,23.9
	C69.2,23.9,69.2,23.9,69.3,23.9c-0.4,0-0.8,0-1.2,0c0,0,0,0.1,0,0.1C68.5,24,68.9,24,69.3,23.9z M76,12.7
	C75.9,12.7,75.9,12.7,76,12.7c0,0.1,0.1,0.2,0.1,0.2c0.1,0,0.1-0.1,0.2-0.2c0,0,0,0,0-0.1C76.1,12.7,76.1,12.7,76,12.7z"/>
<path fill="#FFFFFF" d="M10.3,32.3c0,0,3.2-6.3,6.7-7.2l0.8-1.1c0,0,7.4-4.2,13.8-0.6l2.6,0.6l2,1.3l2.1,1.6l0.8,1.4l0.4,1.6
	l2.2,1.9L40,31.1l0.2,1.8L39,31.4l0.5,1.9L38,31.2l0.5,2.3l-1.6-3.7l0.6,3.2L36,29.4l-1.4-0.5l1.1,4.3l-1.8-4.3l-1.3-0.2l-0.1,0.9
	l1.4,2.3l0.4,2.8L33.9,36l-0.4-1.1l-0.4-2.5l-1-1.9l-1.9-2l-0.8-0.5l1.9,2.7l1,2.2l0.4,2.9L32,37.2l0.3-1.1L31.9,36l-0.3-2.8
	l-0.7-1.6l-2.7-3.2l-0.6-0.2l1.9,2.1l0.5,3.2l-0.8,1.3l0.3-1.3l-0.4,0l-0.4-2.5l-2.4-2.8l-0.5,1l-0.7,0.8l1.6,2.3l1.5,1.1l-1.8-0.7
	l-2.2-2.4l0.4-2.9l-1.6-0.2l-1.3,1.1l-1.1,1.1l-0.5,0.1c0,0,0.3,0.9-0.8,1.5l0.3-1.3l-0.8,1.2c0,0-0.9-1.1,0.8-2.2l1.4-1.1l0.8-0.7
	l-1,0L20.3,27l-0.8-0.1L19,27.2l-0.8-0.3l-0.5-0.1l-1.2,0.8l-0.9,0.9L15,29.4l-0.9,0.6c0,0,1.2-2.5,2.8-3.4
	C16.9,26.5,14.5,26.5,10.3,32.3z"/>
</svg>
