<!-- Generator: Adobe Illustrator 19.2.1, SVG Export Plug-In  -->
<svg version="1.1"
	 xmlns="http://www.w3.org/2000/svg" xmlns:xlink="http://www.w3.org/1999/xlink" xmlns:a="http://ns.adobe.com/AdobeSVGViewerExtensions/3.0/"
	 x="0px" y="0px" width="92.4px" height="73px" viewBox="0 0 92.4 73" enable-background="new 0 0 92.4 73" xml:space="preserve">
<defs>
</defs>
<path fill="#FFFFFF" d="M24.8,32.3c0.4-1.6,0.7-2.9,1-4.3c0.3-1.4-0.4-2.3-1.3-3.2c-0.7-0.7-1.3-1.3-0.9-2.6
	c-2.7,2.2-3.4,5.1-3.4,8.1c0,2.4,0.2,4.8,0.1,7.1c-0.2,3.2-0.5,6.4-0.9,9.5c-0.2,1.7,0.3,2.7,2,2.8c2.1,0.1,4.1,0,6.2-0.2
	c1.5-0.1,2.8-0.2,3.8,1.1c0.3,0.3,0.9,0.4,1.3,0.6c0.6,0.2,1.1,0.3,1.7,0.5c0,0.2,0,0.3,0,0.5c-5,1.1-10,2.1-15,3.2
	c1.6,6,8.4,9.9,14.4,8c3.5-1.1,6.8-2.9,10.2-4.4c6.6-3,13.1-6,20.4-6.7c2.3-0.2,4.5,0,6.6,0.7c-10.7,0.7-19.6,5.4-27.3,12.4
	c-2.6,2.4-5.5,4.6-8.8,5.9C29,73.8,23.2,73.5,18,70C10.4,65,4.8,58.3,1.6,49.7c-1.2-3.1-1.4-6.3-1.5-9.6C0,37.2,0,34.3,0,31.4
	c0.1-3,1-5.9,2.1-8.7c1.7-4.3,3.9-8.4,6.6-12.2c3.2-4.6,7.8-6.6,13.2-7c3.2-0.2,6.4-0.3,9.5,0.6c1.3,0.3,2.8,0.2,4.2,0.1
	c2.7-0.2,5.1,0.5,7.2,2.2c1,0.8,2.3,1.3,3.5,1.9c1,0.5,1.8,1.1,2.3,2.1c0.6,1.2,1.4,2.3,2.2,3.4c1.1,1.4,1,2.4-0.4,3.5
	c-1.2,0.9-2.6,1.3-4,0.9c-2.3-0.7-4.6-0.3-7-0.2c-1.6,0-3.1-0.5-4.7-0.8c-0.6-0.1-1.1-0.3-1.7-0.4c-1-0.1-1.6,0.3-2,1.2
	c-0.4,0.9-1.2,1.6-1.6,2.5c-0.3,0.6-0.5,1.4-0.3,2c0.4,2,0.3,3.9-0.3,5.8C28.2,30.1,27.1,31.6,24.8,32.3z"/>
<path fill="#FFFFFF" d="M43.8,45.2c-0.3,0.1-0.5,0.2-0.7,0.3c-0.5,0.2-1.1,0.3-1.7,0.3c-0.3,0-0.6,0-0.8,0c-0.3,0-0.3,0-0.3-0.3
	c0-0.1,0-0.1,0-0.2c-0.3,0.1-0.5,0.1-0.8,0.2c-0.4,0.1-0.7,0.1-1.1,0.2c-0.1,0-0.1-0.1-0.2-0.1c-0.5,0.2-1,0-1.5-0.1
	c0,0,0-0.1,0-0.1c0.3-0.2,0.5-0.3,0.8-0.5c0,0,0,0,0,0c-0.4,0-0.8,0.1-1.2,0.1c-0.6,0.1-1.1,0-1.6-0.2c-0.3-0.1-0.6-0.1-0.9-0.2
	c-0.2,0-0.4-0.1-0.6-0.2c2,0,3.9-0.6,5.7-1.4c-0.1-0.2-0.3-0.1-0.4-0.1c-0.8,0.2-1.7,0.4-2.5,0.5c-1,0.1-2,0.1-3-0.3
	c-0.5-0.2-1-0.4-1.5-0.7c2.7,0.7,5.3,0.3,7.8-0.9c-0.2-0.2-0.4-0.3-0.6-0.2c-1,0.3-2.1,0.4-3.1,0.3c-0.8-0.1-1.6-0.2-2.3-0.5
	c-0.4-0.2-0.8-0.5-1.2-0.7c-0.3-0.2-0.6-0.4-0.9-0.6c0,0,0,0,0-0.1c0.2,0.1,0.4,0.2,0.6,0.3c0.5,0.2,1,0.5,1.5,0.7
	c0.3,0.1,0.7,0.2,1,0.2c0.6,0.1,1.1,0.2,1.7,0.2c0.5,0,1-0.1,1.5-0.2c0.4-0.1,0.8-0.1,1.3-0.2c0.4-0.1,0.7-0.2,1.1-0.4
	c0.3-0.1,0.5-0.2,0.8-0.3c0,0,0-0.1,0-0.1c-0.2,0-0.3,0-0.5,0c-0.7,0-1.5,0-2.2,0c-0.4,0-0.9-0.1-1.3-0.3c-1-0.4-1.9-0.9-2.5-1.8
	c0.2,0.1,0.3,0.2,0.5,0.4c0.5,0.4,1,0.7,1.6,0.9c1.1,0.4,2.3,0.6,3.5,0.5c0.7,0,1.4-0.2,2.1-0.5c0.4-0.2,0.8-0.3,1.2-0.4
	c0.5-0.2,1-0.5,1.6-0.7c0.8-0.4,1.7-0.8,2.5-1.2c0.4-0.2,0.7-0.3,1.1-0.5c0.1,0,0.2-0.1,0-0.2c0,0,0-0.1,0-0.2c-0.4,0-0.8,0-1.2,0
	c0,0,0,0,0-0.1c0.2-0.1,0.4-0.1,0.7-0.2c0.7-0.3,1.3-0.6,2-0.8c0.5-0.2,1.1-0.4,1.6-0.7c0.7-0.3,1.4-0.6,2.1-0.8
	c0.5-0.2,1-0.3,1.4-0.5c1.3-0.7,2.7-1.5,4-2.2c0.8-0.5,1.6-1.1,2.5-1.7c0.7-0.5,1.4-1,2.1-1.5c0.3-0.2,0.4-0.5,0.6-0.8
	c0.1-0.2,0.2-0.4,0.3-0.6c0-0.1,0-0.2,0-0.3c-0.3-0.5-0.6-0.9-1.1-1.3c-0.2-0.2-0.4-0.4-0.6-0.6c-0.3-0.4-0.7-0.6-1.1-0.6
	c-0.1,0-0.2-0.1-0.3-0.1c0,0.1,0,0.2,0,0.4c0-0.1-0.1-0.1-0.1-0.1c-0.1-0.6,0.2-1.1,0.8-1.1c0.4,0,0.6-0.2,0.9-0.3
	c0.3-0.2,0.7-0.2,1-0.1c0.6,0.1,1.2,0.4,1.8,0.7c0.2,0.1,0.5,0.1,0.7,0.2c0.2,0,0.3,0.1,0.4,0.2c0.2,0.2,0.5,0.2,0.8,0.1
	c0.4-0.2,0.8-0.4,1.3-0.6c0.2-0.1,0.3-0.1,0.5-0.1c0.3,0,0.6-0.1,0.8-0.3c0.8-0.7,1.6-1.4,2.3-2.1c0.5-0.5,1-1,1.5-1.5
	c0.2-0.2,0.4-0.4,0.5-0.6c0.4-0.5,0.9-0.9,1.2-1.4c0.2-0.2,0.2-0.5,0.4-0.7c0.4-0.6,0.8-1.2,1.2-1.8c0.4-0.5,0.8-1,1.2-1.6
	c0.2-0.2,0.4-0.5,0.6-0.7c0.1,0.3,0.2,0.5,0.4,0.8c0.2-0.2,0.4-0.5,0.6-0.7c0.8-0.8,1.6-1.6,2.3-2.5c0.4-0.4,0.7-1,0.9-1.5
	c0.5-1,0.8-2,1.1-3c0.1-0.7,0.1-1.5,0.2-2.2c0-0.1,0-0.1,0-0.2c0,0,0-0.1,0.1-0.1c0,0,0.1,0.1,0.1,0.1C84.8,2.7,85,2.9,85,3.3
	c0.1,0.4,0.1,0.7,0.1,1.1c-0.1,0.6-0.3,1.2-0.4,1.7c-0.2,0.6-0.5,1.1-0.7,1.6c-0.1,0.2-0.3,0.4-0.4,0.7c0,0,0,0.1-0.1,0.1
	c0,0,0,0,0,0c0.2-0.2,0.4-0.4,0.7-0.6C85,7,85.7,6,86.3,4.8c0.3-0.7,0.6-1.4,0.8-2.1c0.2-0.7,0.4-1.4,0.6-2c0.1-0.2,0.2-0.4,0.3-0.6
	C88,0.1,88,0,88.1,0c0.1,0.9,0.3,1.7,0.1,2.6c-0.2,0.8-0.5,1.7-0.9,2.4c-0.2,0.3-0.4,0.6-0.6,0.9c-0.2,0.3-0.5,0.7-0.8,1
	c0,0.1-0.1,0.2-0.1,0.3c0,0,0,0,0.1,0.1C86,7.1,86.2,7,86.3,6.9c0.7-0.7,1.5-1.4,2.1-2.2C89,3.9,89.5,3.1,90,2.4
	c0.2-0.3,0.4-0.5,0.6-0.8c0,0,0,0,0.1,0c0,0.2,0,0.4,0,0.6c-0.1,0.9-0.5,1.7-1.1,2.5c-0.5,0.7-1.1,1.4-1.7,2
	c-0.2,0.2-0.3,0.4-0.3,0.7C87.8,7.2,88,7.1,88.1,7c0.8-0.7,1.6-1.4,2.4-2.1C90.8,4.6,91,4.3,91.3,4c0.3-0.3,0.7-0.6,1.1-0.8
	c-0.2,0.9-0.6,1.6-1.1,2.3c0,0,0,0,0,0c0.4,0,0.3,0,0.4,0.4c0,0.5-0.3,0.9-0.5,1.3c-0.2,0.3-0.4,0.6-0.6,0.9c0.2,0,0.4,0,0.7,0
	c-0.1,0.4-0.1,0.8-0.3,1.1c-0.1,0.3-0.3,0.7-0.5,1c0.1,0,0.2,0.1,0.4,0.1c-0.1,0.2-0.2,0.5-0.3,0.7c0,0.1-0.1,0.3-0.1,0.4
	c-0.1,0.2-0.2,0.4-0.4,0.5c-0.1,0.1-0.2,0.2-0.3,0.3c0.2,0.1,0.3,0.1,0.4,0.2c0.3,0.1,0.3,0.1,0.1,0.4c-0.2,0.4-0.5,0.7-0.7,1.1
	c0.1,0.1,0.2,0.2,0.2,0.3c0,0.1-0.1,0.2-0.2,0.3c-0.1,0.1-0.2,0.3-0.3,0.4c-0.1,0.1-0.2,0.3-0.3,0.4c0,0.1,0.1,0.1,0.1,0.2
	c0.1,0.2,0.1,0.4-0.1,0.5C89.1,16,89,16,89,16.1c-0.2,0.3-0.5,0.5-0.9,0.4c-0.1,0-0.3,0-0.5,0.1c0.2,0.2,0.3,0.3,0.5,0.4
	c0.1,0.1,0.2,0.2,0.2,0.3c0.1,0.2,0.1,0.4-0.1,0.6c-0.1,0.1-0.2,0.2-0.3,0.2c0.1,0.2,0.1,0.4,0.1,0.6c0,0.3-0.2,0.3-0.4,0.4
	c0.1,0.6,0.1,0.6-0.5,0.7c0.1,0.4,0,0.4-0.4,0.5c-0.1,0-0.2,0-0.4,0c0,0.1,0,0.2,0,0.3c0,0.2,0,0.4-0.3,0.3c0,0-0.1,0.1-0.1,0.2
	c0,0.3,0,0.3-0.4,0.4c0,0-0.1,0.1-0.1,0.1c0,0.1,0,0.2,0,0.3c0,0.2-0.1,0.3-0.3,0.2c-0.2,0-0.2,0.1-0.2,0.3
	c-0.1,0.4-0.2,0.5-0.5,0.5c-0.1,0.2-0.1,0.3-0.2,0.5c-0.1,0.1-0.1,0.3-0.3,0.2c0,0-0.2,0.1-0.2,0.1c-0.1,0.3-0.2,0.5-0.5,0.7
	c-0.1,0.1-0.2,0.3-0.2,0.5c0,0.1-0.1,0.2-0.2,0.2c-0.2,0-0.3,0.1-0.4,0.3c-0.1,0.1-0.1,0.2-0.2,0.2c0,0-0.1,0.1-0.1,0.1
	c-0.2-0.1-0.2,0-0.3,0.1c0,0-0.1,0.1-0.1,0.1c-0.1,0.2-0.2,0.4-0.4,0.2c0,0,0,0,0,0c-0.1,0.4-0.1,0.4-0.5,0.2c0,0-0.1,0-0.1,0
	c-0.2,0.3-0.4,0-0.6,0c-0.1,0-0.3,0-0.4,0c-0.3,0-0.5-0.1-0.8-0.1c-0.2,0-0.5-0.1-0.8,0c0,0.3,0,0.5,0,0.7c0,0.1,0,0.2-0.2,0.2
	c-0.4,0.1-0.5,0.3-0.4,0.7C77.6,28,77.6,28,78,28c0.8,0,1.5,0,2.3,0c0.7,0,1.4-0.1,2.2-0.1c0.3,0,0.7,0,1,0c0.4,0,0.8-0.1,1.2-0.1
	c0.3,0,0.4,0.2,0.3,0.4c0.2,0.1,0.2,0.1,0,0.3c-0.1,0.1-0.2,0.2-0.2,0.4c-0.1,0.2,0,0.4,0.2,0.5c0.2,0.1,0.3,0.2,0.3,0.4
	c0,0.1,0.1,0.1,0.2,0.1c-0.1,0.2-0.3,0.1-0.5,0.1c0,0.1,0.1,0.2,0.1,0.3c0,0.1,0,0.2,0,0.3c-0.3,0.3-0.1,0.5,0,0.8
	c0,0.1,0.1,0.2,0.2,0.3c0,0,0.1,0.1,0.1,0.1c0,0-0.1,0.1-0.1,0.1c-0.2,0-0.3,0-0.5-0.1c0,0-0.1,0-0.2,0c0.1,0.1,0.1,0.2,0.1,0.3
	c0.2,0.2,0.1,0.4,0,0.6c-0.1,0.2-0.2,0.4-0.5,0.4c-0.1,0-0.3,0-0.5-0.1c0.1,0.1,0.1,0.2,0.2,0.2c0.2,0.1,0.3,0.3,0.5,0.4
	c0.1,0.1,0.1,0.2,0,0.3c-0.3,0.1-0.3,0.3-0.2,0.6c0.1,0.3-0.4,0.8-0.7,0.8c-0.2,0-0.5-0.1-0.7-0.1c-0.1,0-0.2,0-0.3,0
	c0.3,0.5,0.7,0.8,0.8,1.5c-0.2-0.1-0.3-0.2-0.5-0.3c0,0.2,0,0.2,0.1,0.3c0.1,0.2,0,0.4-0.3,0.4c-0.4,0-0.9,0-1.3-0.2
	c0,0-0.1,0-0.2,0c0,0.1,0,0.1,0,0.2c0.1,0.2,0.2,0.4,0.3,0.6c0.1,0.2,0.1,0.3-0.1,0.5c0,0-0.1,0.1-0.1,0.2c-0.1,0.1-0.1,0.1-0.2,0.2
	c0,0,0,0,0,0c-0.3,0.3-0.5,0.1-0.7,0c0,0,0,0-0.1,0c0.1,0.3,0.1,0.6,0,0.9c0,0-0.1,0.1-0.1,0.1c-0.3,0.1-0.5,0.1-0.8,0
	c-0.4-0.2-0.8-0.4-1.1-0.8c0,0,0,0-0.1-0.1c0,0,0,0-0.1,0c0,0.2,0.1,0.4,0.1,0.6c0.1,0.3,0.2,0.7,0.1,1.1c-0.1,0.2-0.2,0.4-0.4,0.4
	c0,0,0,0-0.1,0c-0.1,0-0.2,0.2-0.3,0.1c-0.2,0-0.5-0.2-0.6-0.4c-0.1-0.1-0.2-0.2-0.3-0.4c0,0,0,0-0.1,0c0,0.1,0,0.2,0,0.2
	c0,0.2,0,0.3,0,0.5c0,0.2-0.1,0.3-0.3,0.4c-0.2,0.1-0.5,0.2-0.7,0.3c0,0,0,0,0-0.1c0,0.1,0,0.2,0,0.3c-0.6,0-0.8-0.5-1-0.9
	c0,0,0,0-0.1,0c0,0.1-0.1,0.3-0.1,0.4c0,0.2-0.1,0.4-0.4,0.4c-0.2,0-0.5,0.1-0.7,0.2c0,0-0.1,0.1-0.1,0.1c-0.2-0.1-0.4-0.1-0.6-0.2
	c-0.1,0-0.1-0.1-0.2-0.2c0-0.1-0.1-0.1-0.2-0.1c-0.3,0-0.5,0-0.8,0c0,0.1-0.1,0.3-0.1,0.4c-0.3,0-0.7-0.4-0.9-0.8
	c-0.3,0.2-0.6,0.3-0.9,0.4c-0.2,0.1-0.3,0.1-0.4-0.1c-0.3-0.4-0.3-0.7-0.2-1.2c0.1-0.6,0.2-1.2,0.3-1.8c0.1-0.3,0.2-0.7,0.3-1
	c0-0.2,0-0.4,0.1-0.6c0.1-0.6,0.1-1.1,0.3-1.7c0.1-0.4,0.2-0.7,0.3-1.1c0.1-0.3,0.1-0.5,0.2-0.7c-0.3,0-0.6-0.1-0.9-0.1
	c-0.2,0-0.2,0.2-0.2,0.3c0,0.3,0,0.3-0.4,0.3c-0.4,0-0.4,0.1-0.4,0.4c0,0.5,0.2,1,0.3,1.5c0,0,0,0,0,0c0,0.3-0.1,0.6-0.2,0.8
	c0,0.1-0.1,0.3-0.2,0.4c-0.3-0.1-0.3,0.1-0.4,0.4c-0.1,0.2-0.2,0.3-0.4,0.3c-0.2,0-0.2,0.1-0.2,0.2c0,0.2-0.1,0.3-0.3,0.3
	c-0.3,0-0.4,0.1-0.4,0.4c-0.3,0.1-0.5,0.1-0.8,0.2c-0.1,0-0.2,0.1-0.2,0.2c0,0.2-0.2,0.3-0.3,0.3c-0.2,0-0.4,0.1-0.5,0.1
	c0,0-0.1,0.1-0.1,0.1c-0.1,0.2-0.2,0.2-0.3,0.3c-0.2,0-0.4,0.1-0.6,0.2c-0.1,0-0.1,0.1-0.1,0.2c0,0.2-0.1,0.2-0.3,0.3
	c-0.3,0-0.6,0.1-0.9,0.1c0,0,0,0,0-0.1c0,0.1-0.1,0.1-0.1,0.2c0,0.3-0.2,0.3-0.4,0.3c-0.2,0-0.4,0-0.6,0.1c-0.1,0-0.2,0.1-0.2,0.1
	c0,0.3-0.2,0.2-0.4,0.3c-0.1,0-0.2,0-0.3,0c-0.4,0-0.4,0-0.5,0.4c-0.3,0-0.5,0.1-0.8,0.1c-0.1,0-0.1,0-0.1,0.1
	c-0.2,0.3-0.5,0.4-0.9,0.1c0,0.1,0,0.2-0.1,0.3c-0.2,0-0.3-0.1-0.5-0.1c0,0.1,0,0.3,0,0.4c0,0.4-0.1,0.7-0.4,0.8
	c-0.1,0-0.3,0.1-0.4,0.1c-0.2-0.1-0.3,0-0.3,0.1c-0.1,0.2-0.2,0.2-0.4,0.3c-0.4,0.1-0.8,0-1.1-0.3c-0.1,0.2-0.1,0.3-0.2,0.5
	c-0.2,0.4-0.7,0.5-1.1,0.2c-0.1-0.1-0.2-0.1-0.3,0c-0.1,0.1-0.2,0.2-0.3,0.2c-0.2,0.1-0.3,0.1-0.5,0.1c-0.2-0.1-0.4-0.1-0.6,0
	c-0.3,0.2-0.6,0.3-0.9,0.5c-0.2,0.1-0.3,0.1-0.4,0c0,0-0.1-0.1-0.1-0.1c-0.5,0.2-0.9,0.4-1.4,0.7c-0.2,0.1-0.4,0-0.5-0.3
	c-0.1-0.2-0.2-0.2-0.4-0.2c-0.3,0.1-0.6,0.2-0.9,0.2c-0.3,0.1-0.5,0.1-0.8,0.2c-0.4,0.1-0.5,0.1-0.5-0.3c-0.5,0.1-1,0.2-1.5,0.3
	c-0.2,0.1-0.5,0.1-0.7,0.2c-0.2,0.1-0.3,0-0.3-0.3C43.7,45.5,43.8,45.4,43.8,45.2z"/>
</svg>
