<!-- Generator: Adobe Illustrator 19.2.1, SVG Export Plug-In  -->
<svg version="1.1"
	 xmlns="http://www.w3.org/2000/svg" xmlns:xlink="http://www.w3.org/1999/xlink" xmlns:a="http://ns.adobe.com/AdobeSVGViewerExtensions/3.0/"
	 x="0px" y="0px" width="81px" height="85px" viewBox="0 0 81 85" enable-background="new 0 0 81 85" xml:space="preserve">
<defs>
</defs>
<g>
	<g opacity="0.35">
		<path d="M40.5,4C18.1,4,0,22.1,0,44.5S18.1,85,40.5,85C62.9,85,81,66.9,81,44.5S62.9,4,40.5,4z M53.4,45.6L34.7,57.3
			c-1.4,0.9-2.5,0.2-2.5-1.5V33.2c0-1.7,1.1-2.4,2.5-1.5l18.8,11.6c0,0,0.7,0.5,0.7,1.1S53.4,45.6,53.4,45.6z"/>
	</g>
	<g>
		<path fill="#FFFFFF" d="M40.5,0C18.1,0,0,18.1,0,40.5S18.1,81,40.5,81C62.9,81,81,62.9,81,40.5S62.9,0,40.5,0z M53.4,41.6
			L34.7,53.3c-1.4,0.9-2.5,0.2-2.5-1.5V29.2c0-1.7,1.1-2.4,2.5-1.5l18.8,11.6c0,0,0.7,0.5,0.7,1.1S53.4,41.6,53.4,41.6z"/>
	</g>
</g>
</svg>
