<!-- Generator: Adobe Illustrator 19.2.1, SVG Export Plug-In  -->
<svg version="1.1"
	 xmlns="http://www.w3.org/2000/svg" xmlns:xlink="http://www.w3.org/1999/xlink" xmlns:a="http://ns.adobe.com/AdobeSVGViewerExtensions/3.0/"
	 x="0px" y="0px" width="81px" height="85px" viewBox="0 0 81 85" enable-background="new 0 0 81 85" xml:space="preserve">
<defs>
</defs>
<g>
	<g opacity="0.35">
		<path d="M40.5,4C18.1,4,0,22.1,0,44.5S18.1,85,40.5,85C62.9,85,81,66.9,81,44.5S62.9,4,40.5,4z M36.9,56.7c0,2.1-1.7,2.8-3.9,2.8
			c-2.1,0-3.9-0.7-3.9-2.8V32.3c0-2.1,1.7-2.8,3.9-2.8c2.1,0,3.9,0.7,3.9,2.8V56.7z M51.9,56.7c0,2.1-1.7,2.8-3.9,2.8
			c-2.1,0-3.9-0.7-3.9-2.8V32.3c0-2.1,1.7-2.8,3.9-2.8c2.1,0,3.9,0.7,3.9,2.8V56.7z"/>
	</g>
	<g>
		<path fill="#FFFFFF" d="M40.5,0C18.1,0,0,18.1,0,40.5S18.1,81,40.5,81C62.9,81,81,62.9,81,40.5S62.9,0,40.5,0z M36.9,52.7
			c0,2.1-1.7,2.8-3.9,2.8c-2.1,0-3.9-0.7-3.9-2.8V28.3c0-2.1,1.7-2.8,3.9-2.8c2.1,0,3.9,0.7,3.9,2.8V52.7z M51.9,52.7
			c0,2.1-1.7,2.8-3.9,2.8c-2.1,0-3.9-0.7-3.9-2.8V28.3c0-2.1,1.7-2.8,3.9-2.8c2.1,0,3.9,0.7,3.9,2.8V52.7z"/>
	</g>
</g>
</svg>
